
        <svg xmlns="http://www.w3.org/2000/svg" xmlns:xlink="http://www.w3.org/1999/xlink" version="1.1" width="3162.3193087297095" 
        height="780.8196797660944" viewBox="0 0 3162.3193087297095 780.8196797660944">
			<rect fill="#48466d" width="3162.3193087297095" height="780.8196797660944"/>
			<g transform="scale(8.115965436485503) translate(10, 10)">
				<defs id="SvgjsDefs6013"><linearGradient id="SvgjsLinearGradient6020"><stop id="SvgjsStop6021" stop-color="#6d7cff" offset="0"></stop><stop id="SvgjsStop6022" stop-color="#ff51ff" offset="1"></stop></linearGradient></defs><g id="SvgjsG6014" featureKey="symbolFeature-0" transform="matrix(21.81583203040529,0,0,21.81583203040529,-15.377979272131254,-16.412950785608615)" fill="url(#SvgjsLinearGradient6020)"><title xmlns="http://www.w3.org/2000/svg">abstract</title><path xmlns="http://www.w3.org/2000/svg" d="M3.93809,2.38489c.00887.11375-.02321.14445-.11653.12941a.58238.58238,0,0,1-.06905.0892.08164.08164,0,0,1-.114-.09591c.01257-.051.05209-.06833.13009-.05481A.32469.32469,0,0,1,3.779,2.41.3666.3666,0,0,1,3.80043,2.369l-.0021-.0083c-.03248-.0303-.05483-.06361-.03216-.10976a.09213.09213,0,0,1,.10646-.04516c.06429.00693.12848.0147.19264.02276a.15217.15217,0,0,1,.03566.00932.0825.0825,0,0,1-.03648.16065c-.02145-.0017-.04265-.00626-.06406-.00865C3.98085,2.38771,3.96117,2.38669,3.93809,2.38489Z"></path><path xmlns="http://www.w3.org/2000/svg" d="M3.04423,2.27006c-.06965-.00112-.11165-.04592-.09545-.09378.02853-.08429.0664-.16545.10118-.24757a.04495.04495,0,0,1,.01919-.01948A.04051.04051,0,0,0,3.092,1.85717a.07907.07907,0,0,1,.05582-.09383.08615.08615,0,0,1,.09936.03978.08292.08292,0,0,1-.02989.10943.04213.04213,0,0,0-.023.0524.06716.06716,0,0,1-.0035.03628c-.02731.07038-.05227.14206-.08575.20946C3.0912,2.2386,3.05819,2.257,3.04423,2.27006Z"></path><path xmlns="http://www.w3.org/2000/svg" d="M3.74107,1.864a.09148.09148,0,0,1-.09015-.05775.06826.06826,0,0,0-.04034-.03206.08584.08584,0,0,1-.07514-.08566.081.081,0,0,1,.06938-.08c.044-.00765.07421.01356.09582.06028a.05094.05094,0,0,0,.03839.02408c.05682-.00052.11357-.00627.17041-.00878a.082.082,0,0,1,.09384.069.08006.08006,0,0,1-.07335.09418C3.86624,1.85671,3.80146,1.85893,3.74107,1.864Z"></path><path xmlns="http://www.w3.org/2000/svg" d="M3.41469,3.33325c-.03114-.03283-.06069-.0601-.08555-.09113a.089.089,0,0,1,.00377-.1252c.03482-.03068.08061-.02278.12319.01659a1.02225,1.02225,0,0,0,.10723.08706.086.086,0,0,1,.01215.15162.06592.06592,0,0,0-.01858.03451.08214.08214,0,0,1-.06455.07547.07871.07871,0,0,1-.08619-.03077.08075.08075,0,0,1,.00092-.10277Z"></path><path xmlns="http://www.w3.org/2000/svg" d="M2.14336.82741a.08781.08781,0,0,1,.081.07561c.01084.048.01677.09716.029.14475a.1012.1012,0,0,0,.03246.05055A.0843.0843,0,0,1,2.32,1.19967a.07777.07777,0,0,1-.08294.05394.081.081,0,0,1-.07936-.07093A.0568.0568,0,0,0,2.142,1.15162c-.08809-.06876-.07933-.16825-.07941-.262C2.06251.84826,2.10115.83,2.14336.82741Z"></path><path xmlns="http://www.w3.org/2000/svg" d="M3.21989,3.75632c-.019.02161-.03454.05432-.05807.06183a.1266.1266,0,0,1-.0884-.01331.1534.1534,0,0,1-.05125-.06344,1.69417,1.69417,0,0,1-.08344-.169.07926.07926,0,0,1,.03761-.10616.08113.08113,0,0,1,.10979.03779c.01151.018.01956.03825.03008.057.02328.04143.04769.08223.07052.1239C3.19756,3.7046,3.20584,3.72575,3.21989,3.75632Z"></path><path xmlns="http://www.w3.org/2000/svg" d="M3.87673,2.80355c-.00134.072-.0524.11373-.10723.096a1.22856,1.22856,0,0,1-.19013-.08134.07819.07819,0,0,1-.03683-.10654.08365.08365,0,0,1,.114-.03915,1.48244,1.48244,0,0,1,.16874.07405A.20206.20206,0,0,1,3.87673,2.80355Z"></path><path xmlns="http://www.w3.org/2000/svg" d="M2.32244,3.564c.00729-.04164.012-.08458.02283-.12589a.07338.07338,0,0,1,.0849-.05561.07164.07164,0,0,1,.0714.07177c.00226.07043.00171.14119-.00269.2115a.08.08,0,0,1-.15415.01757A.81561.81561,0,0,1,2.32244,3.564Z"></path><path xmlns="http://www.w3.org/2000/svg" d="M1.93229,4.06809c.00648-.03109.01706-.08542.02955-.13929A.14866.14866,0,0,1,1.98116,3.887a.08079.08079,0,0,1,.099-.03782.07974.07974,0,0,1,.05069.09315q-.01536.08864-.03411.17669a.08377.08377,0,0,1-.09625.07272C1.95546,4.18467,1.92927,4.14685,1.93229,4.06809Z"></path><path xmlns="http://www.w3.org/2000/svg" d="M1.46327,2.74936a.29089.29089,0,0,1-.03963.054c-.04146.03851-.08647.07319-.12972.10979a.07834.07834,0,0,1-.09438.01112.07282.07282,0,0,1-.0393-.08581.14731.14731,0,0,1,.04-.07031.98636.98636,0,0,1,.14141-.10285C1.39828,2.6319,1.4647,2.672,1.46327,2.74936Z"></path><path xmlns="http://www.w3.org/2000/svg" d="M1.65772,1.18092c-.00174.07453-.06975.11625-.12022.08312a.35307.35307,0,0,1-.14063-.167A.08428.08428,0,0,1,1.43373.98916a.0876.0876,0,0,1,.10963.03195c.02727.03519.05688.06862.08313.10453A.43149.43149,0,0,1,1.65772,1.18092Z"></path><path xmlns="http://www.w3.org/2000/svg" d="M3.29272,2.60068c-.05924.059-.10941.067-.14735.02558a.08346.08346,0,0,1,.00494-.11976c.04272-.03769.09216-.02523.14323.0361.0629-.0578.11058-.065.14855-.02249a.086.086,0,0,1-.00837.12013C3.39131,2.67622,3.34194,2.663,3.29272,2.60068Z"></path><path xmlns="http://www.w3.org/2000/svg" d="M1.09668,1.42182c.03248.00725.07982.01513.12546.02872a.08257.08257,0,1,1-.03863.16055c-.04265-.00611-.08519-.014-.12708-.024a.08551.08551,0,0,1-.07383-.09618C.989,1.44673,1.02886,1.41875,1.09668,1.42182Z"></path><path xmlns="http://www.w3.org/2000/svg" d="M2.61472,1.59283c-.01166.07891-.04288.11384-.09631.10776a.08639.08639,0,0,1-.07507-.09441c.00839-.05735.04868-.07784.12208-.06845a.70463.70463,0,0,1,.067-.09494c.01026-.0106.03835-.00967.05653-.00572a.08152.08152,0,0,1,.05987.09951C2.7366,1.58883,2.69863,1.60476,2.61472,1.59283Z"></path><path xmlns="http://www.w3.org/2000/svg" d="M2.97015,1.61331c-.068-.04553-.08522-.09539-.05058-.14091a.0856.0856,0,0,1,.12333-.01163.088.088,0,0,1-.01242.13653.4952.4952,0,0,1,.05665.09311.08284.08284,0,0,1-.01953.06258.07922.07922,0,0,1-.11531.00645C2.90884,1.71961,2.91387,1.67175,2.97015,1.61331Z"></path><path xmlns="http://www.w3.org/2000/svg" d="M2.91718,1.24228c.08313.01114.11474.03659.11294.09094a.0799.0799,0,0,1-.07426.07945c-.05317.0051-.082-.02265-.09642-.09265-.09129-.01868-.1183-.04069-.11568-.09425a.08144.08144,0,0,1,.07171-.07729C2.86755,1.14227,2.89454,1.16716,2.91718,1.24228Z"></path><path xmlns="http://www.w3.org/2000/svg" d="M1.6833,3.42259a1.59342,1.59342,0,0,1,.07536-.16021.07264.07264,0,0,1,.09845-.02505.08072.08072,0,0,1,.04111.10178c-.01275.04237-.02639.08447-.04022.1265a.08255.08255,0,0,1-.09364.05762A.08607.08607,0,0,1,1.6952,3.428Z"></path><path xmlns="http://www.w3.org/2000/svg" d="M2.87425,2.43477a.18164.18164,0,0,1-.04058.0528,1.00022,1.00022,0,0,1-.13721.07587A.07721.07721,0,0,1,2.624,2.42708a1.12393,1.12393,0,0,1,.14827-.075C2.82263,2.33172,2.87293,2.368,2.87425,2.43477Z"></path><path xmlns="http://www.w3.org/2000/svg" d="M3.37115,2.234a.205.205,0,0,0,.0313-.02086.08714.08714,0,0,1,.11-.01345.07994.07994,0,0,1,.03144.098.08294.08294,0,0,1-.09164.05479.07175.07175,0,0,0-.046.0166.089.089,0,0,1-.10944.01891.08056.08056,0,0,1-.03809-.09554C3.26937,2.2517,3.30622,2.23017,3.37115,2.234Z"></path><path xmlns="http://www.w3.org/2000/svg" d="M3.5805,1.33689c-.06282-.00074-.10935-.0632-.07877-.10968a.56527.56527,0,0,1,.13-.13115.06158.06158,0,0,1,.0888.02249.10522.10522,0,0,1,.01015.08757.785.785,0,0,1-.118.12042C3.60371,1.33484,3.58713,1.33493,3.5805,1.33689Z"></path><path xmlns="http://www.w3.org/2000/svg" d="M1.06915,2.14389a.10312.10312,0,0,1,.08371.06891.07073.07073,0,0,1-.03836.08947.81049.81049,0,0,1-.13857.04868.07989.07989,0,0,1-.06456-.13889A1.27427,1.27427,0,0,1,1.06915,2.14389Z"></path><path xmlns="http://www.w3.org/2000/svg" d="M.7049,2.684c.01313-.05953.104-.1628.15611-.16419a.09667.09667,0,0,1,.07392.03117.09572.09572,0,0,1,.00415.08364.39185.39185,0,0,1-.095.11047.09586.09586,0,0,1-.08374.00784C.73637,2.74178.72294,2.70789.7049,2.684Z"></path><path xmlns="http://www.w3.org/2000/svg" d="M2.75019,3.06664a.09475.09475,0,0,1-.08-.05888.084.084,0,0,1,.01925-.09353.57079.57079,0,0,1,.04383-.05629c.022-.0185.0499-.04347.07411-.04228a.102.102,0,0,1,.07384.04737.1169.1169,0,0,1-.01023.08451.25469.25469,0,0,1-.056.07526A.39952.39952,0,0,1,2.75019,3.06664Z"></path><path xmlns="http://www.w3.org/2000/svg" d="M3.82264,3.67594c.00061.0666-.06.11309-.10894.08576a.41084.41084,0,0,1-.11434-.10234.06935.06935,0,0,1,.01826-.09892.07428.07428,0,0,1,.10147-.00205.63084.63084,0,0,1,.07877.07078A.17564.17564,0,0,1,3.82264,3.67594Z"></path><path xmlns="http://www.w3.org/2000/svg" d="M1.1285,3.1105a.0795.0795,0,0,1,.06445.12641.38071.38071,0,0,1-.09513.09186A.07982.07982,0,0,1,.9774,3.258.203.203,0,0,1,1.1285,3.1105Z"></path><path xmlns="http://www.w3.org/2000/svg" d="M2.80718.99639A.84253.84253,0,0,1,2.85162.87716.07955.07955,0,0,1,2.95527.84253a.08249.08249,0,0,1,.04423.10415c-.00758.02813-.015.05637-.02457.08387a.08212.08212,0,0,1-.09679.05781A.09974.09974,0,0,1,2.80718.99639Z"></path><path xmlns="http://www.w3.org/2000/svg" d="M.92686,1.75567a.28172.28172,0,0,1,.0434.00514.07715.07715,0,0,1,.06583.07784A.072.072,0,0,1,.97473,1.919a.29155.29155,0,0,1-.11317-.00557A.07709.07709,0,0,1,.80588,1.816C.81711,1.77088.8534,1.7506.92686,1.75567Z"></path><path xmlns="http://www.w3.org/2000/svg" d="M3.035,4.17278a.26641.26641,0,0,1-.0598.0649.07058.07058,0,0,1-.09077-.02294.14725.14725,0,0,1-.03031-.14233.116.116,0,0,1,.06731-.05809.066.066,0,0,1,.08146.04386A1.02355,1.02355,0,0,1,3.035,4.17278Z"></path><path xmlns="http://www.w3.org/2000/svg" d="M2.22989,2.38324c-.02374.02683-.03917.05869-.06288.06706a.10164.10164,0,0,1-.08368-.01255.23948.23948,0,0,1-.0621-.08939.077.077,0,0,1,.03644-.099.07554.07554,0,0,1,.10025.01835A1.20191,1.20191,0,0,1,2.22989,2.38324Z"></path><path xmlns="http://www.w3.org/2000/svg" d="M1.50688,1.63349c.06894.00067.12046.04235.11864.096a.0816.0816,0,0,1-.08543.07828c-.07366-.00046-.12226-.03627-.12271-.09043A.08256.08256,0,0,1,1.50688,1.63349Z"></path><path xmlns="http://www.w3.org/2000/svg" d="M4.01443,3.01581c.06865.00387.12271.05151.11846.10438a.08345.08345,0,0,1-.09335.075.11444.11444,0,0,1-.1136-.10025A.08016.08016,0,0,1,4.01443,3.01581Z"></path><path xmlns="http://www.w3.org/2000/svg" d="M2.454,2.29981a.11766.11766,0,0,1,.11863-.09945.08168.08168,0,0,1,.07879.08486.1254.1254,0,0,1-.1175.10293A.08252.08252,0,0,1,2.454,2.29981Z"></path><circle xmlns="http://www.w3.org/2000/svg" cx="2.43424" cy="2.78905" r="0.0831" transform="translate(-0.44014 5.1219) rotate(-87.94878)"></circle><circle xmlns="http://www.w3.org/2000/svg" cx="2.21377" cy="2.54924" r="0.08353" transform="translate(-0.00983 0.00857) rotate(-0.22141)"></circle><circle xmlns="http://www.w3.org/2000/svg" cx="2.16043" cy="1.86976" r="0.08378" transform="translate(0.25739 4.00092) rotate(-89.11123)"></circle><circle xmlns="http://www.w3.org/2000/svg" cx="2.28189" cy="1.44231" r="0.08379" transform="translate(-0.00269 0.00427) rotate(-0.10711)"></circle><circle xmlns="http://www.w3.org/2000/svg" cx="1.43728" cy="3.18269" r="0.08377" transform="translate(-1.76775 4.56944) rotate(-89.09359)"></circle><circle xmlns="http://www.w3.org/2000/svg" cx="2.37346" cy="1.82991" r="0.08326" transform="translate(0.47827 4.15157) rotate(-88.4068)"></circle><circle xmlns="http://www.w3.org/2000/svg" cx="3.39872" cy="1.33675" r="0.08394" transform="translate(-0.04802 0.12919) rotate(-2.1624)"></circle><circle xmlns="http://www.w3.org/2000/svg" cx="3.38579" cy="1.60248" r="0.08348" transform="translate(1.53811 4.86094) rotate(-85.77303)"></circle><circle xmlns="http://www.w3.org/2000/svg" cx="1.96406" cy="1.49335" r="0.08323" transform="translate(0.38244 3.38705) rotate(-87.3785)"></circle><circle xmlns="http://www.w3.org/2000/svg" cx="2.69335" cy="3.36185" r="0.08336" transform="translate(-0.74981 5.95045) rotate(-88.23624)"></circle><circle xmlns="http://www.w3.org/2000/svg" cx="4.20491" cy="1.96277" r="0.08358" transform="translate(2.07557 6.08584) rotate(-87.70837)"></circle><circle xmlns="http://www.w3.org/2000/svg" cx="3.09992" cy="3.18195" r="0.08358" transform="translate(-0.04731 0.04678) rotate(-0.85815)"></circle><circle xmlns="http://www.w3.org/2000/svg" cx="2.18069" cy="3.44856" r="0.0837"></circle><circle xmlns="http://www.w3.org/2000/svg" cx="1.87418" cy="1.99094" r="0.08345" transform="translate(-0.06653 0.0648) rotate(-1.94617)"></circle><circle xmlns="http://www.w3.org/2000/svg" cx="1.42798" cy="2.23004" r="0.08366" transform="translate(-0.02973 0.01932) rotate(-0.76711)"></circle><circle xmlns="http://www.w3.org/2000/svg" cx="3.37245" cy="2.08312" r="0.08337" transform="matrix(0.99999, -0.00499, 0.00499, 0.99999, -0.01035, 0.01685)"></circle><circle xmlns="http://www.w3.org/2000/svg" cx="2.9004" cy="2.70931" r="0.08356" transform="translate(-0.03056 0.0331) rotate(-0.65034)"></circle><circle xmlns="http://www.w3.org/2000/svg" cx="3.16656" cy="1.2441" r="0.08337" transform="translate(1.9074 4.40471) rotate(-89.72735)"></circle><circle xmlns="http://www.w3.org/2000/svg" cx="1.88146" cy="2.86206" r="0.08311" transform="translate(-1.00051 4.71289) rotate(-89.38877)"></circle><circle xmlns="http://www.w3.org/2000/svg" cx="3.67244" cy="2.02399" r="0.08335" transform="translate(1.57391 5.65435) rotate(-88.83042)"></circle><circle xmlns="http://www.w3.org/2000/svg" cx="2.58024" cy="3.0883" r="0.08351" transform="translate(-0.52427 5.64901) rotate(-89.63866)"></circle><circle xmlns="http://www.w3.org/2000/svg" cx="2.61449" cy="1.26969" r="0.0833" transform="translate(1.23161 3.82611) rotate(-87.49184)"></circle><circle xmlns="http://www.w3.org/2000/svg" cx="1.40163" cy="3.66067" r="0.08311" transform="translate(-2.2726 5.02638) rotate(-89.43882)"></circle><circle xmlns="http://www.w3.org/2000/svg" cx="2.64013" cy="3.9875" r="0.08373" transform="translate(-1.38535 6.56935) rotate(-89.16655)"></circle><circle xmlns="http://www.w3.org/2000/svg" cx="2.51387" cy="0.83732" r="0.08328" transform="translate(-0.01676 0.05211) rotate(-1.18361)"></circle><circle xmlns="http://www.w3.org/2000/svg" cx="2.80887" cy="2.08913" r="0.08384" transform="translate(-0.04589 0.06315) rotate(-1.27774)"></circle><circle xmlns="http://www.w3.org/2000/svg" cx="1.75508" cy="2.5555" r="0.0838" transform="translate(-0.00374 0.00257) rotate(-0.08385)"></circle><circle xmlns="http://www.w3.org/2000/svg" cx="2.34079" cy="2.13628" r="0.08352" transform="translate(0.15891 4.43462) rotate(-88.8736)"></circle><circle xmlns="http://www.w3.org/2000/svg" cx="1.8089" cy="2.20983" r="0.08331" transform="translate(-0.42527 3.98857) rotate(-89.22232)"></circle><circle xmlns="http://www.w3.org/2000/svg" cx="3.33272" cy="0.89709" r="0.08323" transform="translate(2.37872 4.21397) rotate(-89.0193)"></circle><circle xmlns="http://www.w3.org/2000/svg" cx="3.43811" cy="1.90946" r="0.0834" transform="translate(-0.03585 0.06603) rotate(-1.09461)"></circle><circle xmlns="http://www.w3.org/2000/svg" cx="4.21193" cy="2.66197" r="0.08344" transform="translate(1.48225 6.83034) rotate(-89.07419)"></circle><circle xmlns="http://www.w3.org/2000/svg" cx="1.95425" cy="1.69004" r="0.08311" transform="translate(0.26107 3.64157) rotate(-89.90803)"></circle><circle xmlns="http://www.w3.org/2000/svg" cx="3.35292" cy="2.88841" r="0.08351" transform="translate(0.45318 6.23154) rotate(-89.80611)"></circle><circle xmlns="http://www.w3.org/2000/svg" cx="3.09987" cy="2.82753" r="0.08302" transform="translate(0.25425 5.91081) rotate(-89.6649)"></circle><circle xmlns="http://www.w3.org/2000/svg" cx="3.84553" cy="1.45679" r="0.08325" transform="translate(-0.02203 0.05954) rotate(-0.88451)"></circle><circle xmlns="http://www.w3.org/2000/svg" cx="3.24016" cy="3.0349" r="0.08299" transform="translate(-0.02772 0.02987) rotate(-0.52594)"></circle><circle xmlns="http://www.w3.org/2000/svg" cx="3.67229" cy="3.0416" r="0.08342" transform="translate(0.604 6.69162) rotate(-89.58245)"></circle><circle xmlns="http://www.w3.org/2000/svg" cx="2.78682" cy="1.82376" r="0.08296" transform="translate(-0.02252 0.03489) rotate(-0.71445)"></circle><circle xmlns="http://www.w3.org/2000/svg" cx="2.50045" cy="1.96329" r="0.08304" transform="translate(-0.03878 0.05042) rotate(-1.14635)"></circle><circle xmlns="http://www.w3.org/2000/svg" cx="2.25008" cy="3.01536" r="0.08326"></circle></g><g id="SvgjsG6015" featureKey="nameFeature-0" transform="matrix(0.9222520629291125,0,0,0.9222520629291125,95.34391395322078,-3.066102130166504)" fill="#ffffff"><path d="M7.52 39.9987109 l-4.6392 0.000039062 l0 -14.04 l18.639 0 l0 4.7204 l-14 0 l0 9.3192 z M3.7542 26.833 l-0.000039062 12.291 l2.8917 0 l0 -9.3192 l13.999 0 l0 -2.9721 l-16.891 0 z M2.88 11.998999999999999 l18.64 0 l0 4.6802 l-14 0 z M20.646 15.806000000000001 l0 -2.9327 l-15.668 0 l2.9065 2.9327 l12.762 0 z M30.27 39.9987109 l-4.6392 0.000039062 l0 -14.04 l18.639 0 l0 4.7204 l-14 0 l0 9.3192 z M26.5042 26.833 l-0.000039062 12.291 l2.8917 0 l0 -9.3192 l13.999 0 l0 -2.9721 l-16.891 0 z M25.63 11.998999999999999 l18.64 0 l0 4.6802 l-14 0 z M43.396 15.806000000000001 l0 -2.9327 l-15.668 0 l2.9065 2.9327 l12.762 0 z M48.38 39.61492 l4.6392 -4.2956 l14 0 l0 4.6802 l-18.639 0 l0 -0.38461 z M66.146 36.1944 l-12.783 0 l-3.167 2.9319 l15.95 0 l0 -2.9319 z M48.38 12 l18.64 0 l0 4.6802 l-14 0 z M66.146 15.806000000000001 l0 -2.9319 l-15.668 0 l2.9065 2.9319 l12.762 0 z M48.38 28.34 l0 -4.64 l18.639 0 l0 4.64 l-18.639 0 z M49.2541 24.573999999999998 l0 2.8917 l16.891 0 l0 -2.8917 l-16.891 0 z M89.743 12 l4.6732 0 l0 28.001 l-23.286 -20.923 l0 -7.0779 l18.613 16.76 l0 -16.76 z M93.542 38.0397 l0 -25.166 l-2.9249 0 l0 17.849 l-1.459 -1.3138 l-17.154 -15.446 l0 4.7247 z M116.414 34.4932 c1.1958 -0.5516 2.2396 -1.3252 3.1278 -2.32 l4.68 1.5332 c-0.64596 0.94144 -1.3925 1.8016 -2.2395 2.5822 c-0.84792 0.77972 -1.7684 1.4458 -2.7641 1.9965 c-0.99568 0.55248 -2.0577 0.97556 -3.1871 1.271 c-1.1303 0.29633 -2.2999 0.44408 -3.5106 0.44408 c-3.8733 0 -7.1688 -1.3715 -9.8848 -4.1156 c-2.744 -2.7168 -4.1156 -6.0116 -4.1156 -9.8848 c0 -3.8462 1.3715 -7.1408 4.1156 -9.8848 c2.7168 -2.744 6.0116 -4.1156 9.8848 -4.1156 c1.9362 0 3.7518 0.36363 5.446 1.0909 c1.6941 0.72556 3.1872 1.7343 4.4784 3.0254 l-3.348 3.3086 c-1.8025 -1.8296 -3.994 -2.7439 -6.5764 -2.7439 c-2.5551 0 -4.7608 0.91432 -6.6164 2.7439 c-1.8025 1.8287 -2.7038 4.02 -2.7038 6.5752 s0.90124 4.7608 2.7038 6.6164 c1.8558 1.8025 4.0604 2.7038 6.6164 2.7038 c1.3986 0 2.6959 -0.27535 3.8934 -0.82696 z M122.792 34.1576 l-2.9957 -0.9816 c-0.87592 0.882 -1.8882 1.59 -3.0158 2.1102 c-1.3077 0.60228 -2.7413 0.90736 -4.2596 0.90736 c-2.778 0 -5.2088 -0.99216 -7.2256 -2.9502 c-1.9756 -2.035 -2.9686 -4.466 -2.9686 -7.244 c0 -2.7798 0.99392 -5.1984 2.9546 -7.1888 c2.0254 -1.9965 4.458 -3.0044 7.2396 -3.0044 c2.5149 0 4.7176 0.8086 6.5604 2.4048 l2.1041 -2.0787 c-1.0568 -0.9266 -2.2518 -1.6775 -3.5622 -2.2387 c-1.5787 -0.6766 -3.2946 -1.0192 -5.1024 -1.0192 c-3.6644 0 -6.694 1.2614 -9.2624 3.8567 c-2.6006 2.5997 -3.8628 5.6312 -3.8628 9.2692 c0 3.6644 1.2614 6.694 3.8567 9.2632 c2.5752 2.6014 5.6052 3.8628 9.2696 3.8628 c1.1303 0 2.237 -0.13984 3.2886 -0.4152 c1.0542 -0.27535 2.0586 -0.67572 2.9843 -1.1897 c0.9292 -0.51488 1.8025 -1.1452 2.5962 -1.8759 c0.5026 -0.46416 0.97204 -0.96156 1.4012 -1.4878 z M119.53999999999999 28.34 l-7.0202 0 l0 -4.64 l11.7 0 z M113.394 24.573999999999998 l0 2.8917 l5.7859 0 l2.917 -2.8917 l-8.703 0 z M128.31 12.059999999999999 l4.64 4.6008 l0 18.6 l-4.64 4.68 l0 -27.881 z M132.0748 34.900800000000004 l0 -17.877 l-2.8917 -2.8663 l0 23.66 z M155.633 12 l4.6732 0 l0 28.001 l-23.286 -20.923 l0 -7.0779 l18.613 16.76 l0 -16.76 z M159.43200000000002 38.0397 l0 -25.166 l-2.9249 0 l0 17.849 l-1.459 -1.3138 l-17.154 -15.446 l0 4.7247 z M164.41000000000003 39.61492 l4.6392 -4.2956 l14 0 l0 4.6802 l-18.639 0 l0 -0.38461 z M182.17600000000004 36.1944 l-12.783 0 l-3.167 2.9319 l15.95 0 l0 -2.9319 z M164.41000000000003 12 l18.64 0 l0 4.6802 l-14 0 z M182.17600000000004 15.806000000000001 l0 -2.9319 l-15.668 0 l2.9065 2.9319 l12.762 0 z M164.41000000000003 28.34 l0 -4.64 l18.639 0 l0 4.64 l-18.639 0 z M165.28410000000002 24.573999999999998 l0 2.8917 l16.891 0 l0 -2.8917 l-16.891 0 z M187.16000000000003 39.61492 l4.6392 -4.2956 l14 0 l0 4.6802 l-18.639 0 l0 -0.38461 z M204.92600000000004 36.1944 l-12.783 0 l-3.167 2.9319 l15.95 0 l0 -2.9319 z M187.16000000000003 12 l18.64 0 l0 4.6802 l-14 0 z M204.92600000000004 15.806000000000001 l0 -2.9319 l-15.668 0 l2.9065 2.9319 l12.762 0 z M187.16000000000003 28.34 l0 -4.64 l18.639 0 l0 4.64 l-18.639 0 z M188.03410000000002 24.573999999999998 l0 2.8917 l16.891 0 l0 -2.8917 l-16.891 0 z M229.86400000000003 26.605 c-1.076 1.5604 -2.4475 2.6765 -4.1136 3.3488 l5.7692 10.046 l-5.3664 0 l-8.1312 -14.018 l4.1776 0.018359 c1.264 0 2.3532 -0.4572 3.2684 -1.3715 c0.91348 -0.91432 1.3715 -2.0175 1.3715 -3.3086 c0 -1.264 -0.4572 -2.3541 -1.3715 -3.2684 c-0.91524 -0.91432 -2.0044 -1.3715 -3.2684 -1.3715 l-9.5736 0 l-2.7151 -4.68 l12.288 0 c2.5551 0 4.7468 0.91524 6.5752 2.744 c1.8296 1.8296 2.7439 4.0212 2.7439 6.576 c0 1.9362 -0.5516 3.6985 -1.6539 5.2852 z M230.00800000000004 39.1262 l-5.0176 -8.738 l-0.5 -0.87068 l0.93096 -0.375 c1.4974 -0.60316 2.7501 -1.6242 3.7221 -3.0342 c1.0105 -1.4528 1.5 -3.0184 1.5 -4.7884 c0 -2.3348 -0.81384 -4.284 -2.4878 -5.958 s-3.6233 -2.4878 -5.958 -2.4878 l-10.77 0 l1.702 2.9319 l9.0701 0 c1.4974 0 2.8052 0.54808 3.8856 1.6276 c1.0804 1.0813 1.6276 2.3891 1.6276 3.8865 c0 1.5254 -0.54724 2.8462 -1.6276 3.9266 c-1.0804 1.0796 -2.3882 1.6276 -3.8864 1.6276 l-2.6565 -0.011367 l7.1136 12.263 l3.3523 0 z M235.62000000000003 12.059999999999999 l4.64 4.6008 l0 18.6 l-4.64 4.68 l0 -27.881 z M239.38480000000004 34.900800000000004 l0 -17.877 l-2.8917 -2.8663 l0 23.66 z M262.94300000000004 12 l4.6732 0 l0 28.001 l-23.286 -20.923 l0 -7.0779 l18.613 16.76 l0 -16.76 z M266.7420000000001 38.0397 l0 -25.166 l-2.9249 0 l0 17.849 l-1.459 -1.3138 l-17.154 -15.446 l0 4.7247 z M289.61400000000003 34.4932 c1.1958 -0.5516 2.2396 -1.3252 3.1278 -2.32 l4.68 1.5332 c-0.64596 0.94144 -1.3925 1.8016 -2.2395 2.5822 c-0.84792 0.77972 -1.7684 1.4458 -2.7641 1.9965 c-0.99568 0.55248 -2.0577 0.97556 -3.1871 1.271 c-1.1303 0.29633 -2.2999 0.44408 -3.5106 0.44408 c-3.8733 0 -7.1688 -1.3715 -9.8848 -4.1156 c-2.744 -2.7168 -4.1156 -6.0116 -4.1156 -9.8848 c0 -3.8462 1.3715 -7.1408 4.1156 -9.8848 c2.7168 -2.744 6.0116 -4.1156 9.8848 -4.1156 c1.9362 0 3.7518 0.36363 5.446 1.0909 c1.6941 0.72556 3.1872 1.7343 4.4784 3.0254 l-3.348 3.3086 c-1.8025 -1.8296 -3.994 -2.7439 -6.5764 -2.7439 c-2.5551 0 -4.7608 0.91432 -6.6164 2.7439 c-1.8025 1.8287 -2.7038 4.02 -2.7038 6.5752 s0.90124 4.7608 2.7038 6.6164 c1.8558 1.8025 4.0604 2.7038 6.6164 2.7038 c1.3986 0 2.6959 -0.27535 3.8934 -0.82696 z M295.992 34.1576 l-2.9957 -0.9816 c-0.87592 0.882 -1.8882 1.59 -3.0158 2.1102 c-1.3077 0.60228 -2.7413 0.90736 -4.2596 0.90736 c-2.778 0 -5.2088 -0.99216 -7.2256 -2.9502 c-1.9756 -2.035 -2.9686 -4.466 -2.9686 -7.244 c0 -2.7798 0.99392 -5.1984 2.9546 -7.1888 c2.0254 -1.9965 4.458 -3.0044 7.2396 -3.0044 c2.5149 0 4.7176 0.8086 6.5604 2.4048 l2.1041 -2.0787 c-1.0568 -0.9266 -2.2518 -1.6775 -3.5622 -2.2387 c-1.5787 -0.6766 -3.2946 -1.0192 -5.1024 -1.0192 c-3.6644 0 -6.694 1.2614 -9.2624 3.8567 c-2.6006 2.5997 -3.8628 5.6312 -3.8628 9.2692 c0 3.6644 1.2614 6.694 3.8567 9.2632 c2.5752 2.6014 5.6052 3.8628 9.2696 3.8628 c1.1303 0 2.237 -0.13984 3.2886 -0.4152 c1.0542 -0.27535 2.0586 -0.67572 2.9843 -1.1897 c0.9292 -0.51488 1.8025 -1.1452 2.5962 -1.8759 c0.5026 -0.46416 0.97204 -0.96156 1.4012 -1.4878 z M292.74 28.34 l-7.0202 0 l0 -4.64 l11.7 0 z M286.59400000000005 24.573999999999998 l0 2.8917 l5.7859 0 l2.917 -2.8917 l-8.703 0 z"></path></g><g id="SvgjsG6016" featureKey="sloganFeature-0" transform="matrix(1.0560731755462747,0,0,1.0560731755462747,97.20516154495745,47.84309447428707)" fill="#ffffff"><path d="M12.92 19.66 c0.08 0.2 -0.02 0.34 -0.24 0.34 l-1.29 0 c-0.16 0 -0.27 -0.06 -0.34 -0.24 l-0.99 -2.69 l-6.42 0 l-0.99 2.69 c-0.07 0.18 -0.18 0.24 -0.34 0.24 l-1.29 0 c-0.22 0 -0.32 -0.14 -0.24 -0.34 l5.08 -13.42 c0.06 -0.16 0.2 -0.24 0.36 -0.24 l1.26 0 c0.16 0 0.3 0.08 0.36 0.24 z M4.25 15.42 l5.2 0 l-2.6 -7.08 z M25.680500000000002 7.699999999999999 l-3.74 0 l0 10.6 l3.74 0 c0.18 0 0.3 0.12 0.3 0.3 l0 1.1 c0 0.18 -0.12 0.3 -0.3 0.3 l-9.35 0 c-0.18 0 -0.3 -0.12 -0.3 -0.3 l0 -1.1 c0 -0.18 0.12 -0.3 0.3 -0.3 l3.74 0 l0 -10.6 l-3.74 0 c-0.18 0 -0.3 -0.12 -0.3 -0.3 l0 -1.1 c0 -0.18 0.12 -0.3 0.3 -0.3 l9.35 0 c0.18 0 0.3 0.12 0.3 0.3 l0 1.1 c0 0.18 -0.12 0.3 -0.3 0.3 z M43.0915 12.01 c2.72 0.56 5.21 1.37 5.21 4.33 c0 2.4 -1.61 3.96 -5.15 3.96 c-3.03 0 -4.85 -1.12 -5.06 -3.42 c-0.02 -0.2 0.1 -0.36 0.28 -0.36 l1.22 0 c0.18 0 0.28 0.14 0.3 0.3 c0.17 1.1 1.33 1.78 3.26 1.78 c2.13 0 3.31 -0.72 3.31 -2.24 c0 -1.77 -1.23 -2.15 -3.37 -2.65 c-2.54 -0.58 -4.68 -1.45 -4.68 -4.16 c0 -2.26 1.53 -3.72 4.62 -3.72 c2.86 0 4.62 1.09 4.85 3.35 c0.02 0.2 -0.1 0.3 -0.28 0.3 l-1.13 0 c-0.18 0 -0.28 -0.08 -0.3 -0.24 c-0.15 -1.02 -1.26 -1.74 -3.13 -1.74 c-1.72 0 -2.83 0.7 -2.83 2.05 c0 1.36 0.91 2.05 2.88 2.46 z M58.752 20.26 c-3.96 0 -7.17 -3.2 -7.17 -7.2 c0 -4.02 3.21 -7.22 7.17 -7.22 c3.95 0 7.16 3.2 7.16 7.22 c0 4 -3.21 7.2 -7.16 7.2 z M58.752 18.49 c2.97 0 5.32 -2.4 5.32 -5.43 c0 -3.05 -2.35 -5.45 -5.32 -5.45 c-2.98 0 -5.33 2.4 -5.33 5.45 c0 3.03 2.35 5.43 5.33 5.43 z M78.5425 18.3 c0.18 0 0.3 0.12 0.3 0.3 l0 1.1 c0 0.18 -0.12 0.3 -0.3 0.3 l-8.45 0 c-0.18 0 -0.3 -0.12 -0.3 -0.3 l0 -13.4 c0 -0.18 0.12 -0.3 0.3 -0.3 l1.27 0 c0.18 0 0.3 0.12 0.3 0.3 l0 12 l6.88 0 z M93.103 6 c0.18 0 0.3 0.12 0.3 0.3 l0 8.04 c0 3.98 -2.15 5.95 -5.67 5.95 c-3.51 0 -5.66 -1.97 -5.66 -5.95 l0 -8.04 c0 -0.18 0.12 -0.3 0.3 -0.3 l1.27 0 c0.18 0 0.3 0.12 0.3 0.3 l0 8.04 c0 2.83 1.5 4.18 3.79 4.18 c2.3 0 3.8 -1.35 3.8 -4.18 l0 -8.04 c0 -0.18 0.12 -0.3 0.3 -0.3 l1.27 0 z M107.1335 6 c0.18 0 0.3 0.12 0.3 0.3 l0 1.1 c0 0.18 -0.12 0.3 -0.3 0.3 l-4.19 0 l0 12 c0 0.18 -0.12 0.3 -0.3 0.3 l-1.27 0 c-0.18 0 -0.3 -0.12 -0.3 -0.3 l0 -12 l-4.19 0 c-0.18 0 -0.3 -0.12 -0.3 -0.3 l0 -1.1 c0 -0.18 0.12 -0.3 0.3 -0.3 l10.25 0 z M120.36399999999999 7.699999999999999 l-3.74 0 l0 10.6 l3.74 0 c0.18 0 0.3 0.12 0.3 0.3 l0 1.1 c0 0.18 -0.12 0.3 -0.3 0.3 l-9.35 0 c-0.18 0 -0.3 -0.12 -0.3 -0.3 l0 -1.1 c0 -0.18 0.12 -0.3 0.3 -0.3 l3.74 0 l0 -10.6 l-3.74 0 c-0.18 0 -0.3 -0.12 -0.3 -0.3 l0 -1.1 c0 -0.18 0.12 -0.3 0.3 -0.3 l9.35 0 c0.18 0 0.3 0.12 0.3 0.3 l0 1.1 c0 0.18 -0.12 0.3 -0.3 0.3 z M131.4645 20.26 c-3.96 0 -7.17 -3.2 -7.17 -7.2 c0 -4.02 3.21 -7.22 7.17 -7.22 c3.95 0 7.16 3.2 7.16 7.22 c0 4 -3.21 7.2 -7.16 7.2 z M131.4645 18.49 c2.97 0 5.32 -2.4 5.32 -5.43 c0 -3.05 -2.35 -5.45 -5.32 -5.45 c-2.98 0 -5.33 2.4 -5.33 5.45 c0 3.03 2.35 5.43 5.33 5.43 z M152.765 6 c0.18 0 0.3 0.12 0.3 0.3 l0 13.4 c0 0.16 -0.1 0.28 -0.25 0.3 l-1.64 0 c-0.16 0 -0.28 -0.06 -0.36 -0.2 l-6.44 -11.04 l0 10.94 c0 0.18 -0.12 0.3 -0.3 0.3 l-1.27 0 c-0.18 0 -0.3 -0.12 -0.3 -0.3 l0 -13.4 c0 -0.17 0.1 -0.28 0.26 -0.3 l1.63 0 c0.16 0 0.28 0.06 0.36 0.2 l6.44 11.03 l0 -10.93 c0 -0.18 0.12 -0.3 0.3 -0.3 l1.27 0 z M161.74549999999996 12.01 c2.72 0.56 5.21 1.37 5.21 4.33 c0 2.4 -1.61 3.96 -5.15 3.96 c-3.03 0 -4.85 -1.12 -5.06 -3.42 c-0.02 -0.2 0.1 -0.36 0.28 -0.36 l1.22 0 c0.18 0 0.28 0.14 0.3 0.3 c0.17 1.1 1.33 1.78 3.26 1.78 c2.13 0 3.31 -0.72 3.31 -2.24 c0 -1.77 -1.23 -2.15 -3.37 -2.65 c-2.54 -0.58 -4.68 -1.45 -4.68 -4.16 c0 -2.26 1.53 -3.72 4.62 -3.72 c2.86 0 4.62 1.09 4.85 3.35 c0.02 0.2 -0.1 0.3 -0.28 0.3 l-1.13 0 c-0.18 0 -0.28 -0.08 -0.3 -0.24 c-0.15 -1.02 -1.26 -1.74 -3.13 -1.74 c-1.72 0 -2.83 0.7 -2.83 2.05 c0 1.36 0.91 2.05 2.88 2.46 z"></path></g>
			</g>
		</svg>
	